<svg xmlns="http://www.w3.org/2000/svg" viewBox="0 0 199.66 199.66"><defs><style>.cls-1{fill:#f08ab7;}.cls-2{fill:#fff;}.cls-3{fill:#070808;}.cls-4,.cls-6{fill:#1d1d1b;}.cls-5{fill:#d1d1d1;}.cls-6{font-size:20px;font-family:OldEnglishTextMT, Old English Text MT;}.cls-7{fill:#ffd400;stroke-width:0.25px;}.cls-7,.cls-8{stroke:#1d1d1b;stroke-miterlimit:10;}.cls-8{fill:#fdfae1;stroke-width:0.05px;}</style></defs><g id="Lag_2" data-name="Lag 2"><g id="Blink"><rect class="cls-1" width="199.66" height="199.66"/><path class="cls-2" d="M150.21,101.33q-1.29-5.2-2.05-10.52a9,9,0,0,1,.09-4.2,11.9,11.9,0,0,1,2.17-3.26c2.72-3.44,4.3-7.62,5.63-11.79,3.24-10.17,5.19-21.24,2-31.44a45.44,45.44,0,0,0-8.3-14.87c-2.43-3.05-5.2-6-8.73-7.65-7-3.33-15.25-1.13-22.67,1.11L99,24.59a37.89,37.89,0,0,0-4.86,1.72c-1.12.51-2.19,1.13-3.33,1.59A26.28,26.28,0,0,1,85,29.27c-6.66,1.05-13.33,2.11-20,2.64-3.55.28-7.12.42-10.64.94-4.92.73-10.18,2.57-12.65,6.89-1.78,3.13-1.75,7-3.07,10.32-1.1,2.77-3.09,5.11-4.19,7.88-2,4.87-.91,10.54,1.55,15.19s6.2,8.45,9.89,12.2L59.35,99"/><path class="cls-3" d="M152.62,100.66c-.58-2.36-1.09-4.75-1.51-7.15-.32-1.78-1.19-4.47-.45-6.23a9,9,0,0,1,1.41-2,30.58,30.58,0,0,0,2-2.81,37.22,37.22,0,0,0,2.94-6.1c3.28-8.41,5.5-17.82,5.13-26.89s-3.89-17.3-9.4-24.48c-2.62-3.43-5.51-6.8-9.31-9a22.07,22.07,0,0,0-12.69-2.54,63.15,63.15,0,0,0-13,2.82l-14.21,4.3c-2.34.71-4.69,1.39-7,2.14s-4.35,1.91-6.57,2.82A28.82,28.82,0,0,1,83.38,27c-2.44.39-4.88.77-7.32,1.12-4.81.7-9.63,1.19-14.48,1.52-4.33.3-8.81.55-12.95,2C45,32.89,41.49,35,39.52,38.47c-2.1,3.69-1.85,8.14-3.78,11.87-1,1.89-2.24,3.62-3.14,5.56a17.89,17.89,0,0,0-1.67,6.43A23.12,23.12,0,0,0,34,74.77a50.7,50.7,0,0,0,8.23,10.45C45.6,88.68,49,92.09,52.39,95.53l5.19,5.27c2.26,2.3,5.8-1.24,3.54-3.54l-9.86-10c-3.1-3.15-6.32-6.23-9.18-9.62a26.21,26.21,0,0,1-5.66-10.22A13.85,13.85,0,0,1,37.8,56.73a49.2,49.2,0,0,0,3.06-5.61,33.31,33.31,0,0,0,1.52-5.64,13.72,13.72,0,0,1,1.94-5.24,10.12,10.12,0,0,1,3.54-2.89c3.22-1.7,7-2.16,10.57-2.46,4.64-.4,9.27-.67,13.9-1.25s9.52-1.32,14.26-2.11a23.87,23.87,0,0,0,6.3-1.84A45.72,45.72,0,0,1,99,27.21c4.49-1.38,9-2.72,13.47-4.08,4.23-1.28,8.45-2.68,12.75-3.7,3.83-.91,7.95-1.52,11.84-.6s6.82,3.33,9.4,6.25c5.27,6,9.48,13.24,10.48,21.25C158,55,156,63.75,153.3,71.94a33.16,33.16,0,0,1-5.39,10.57,9.49,9.49,0,0,0-2.45,6,36,36,0,0,0,.91,6.84q.62,3.36,1.43,6.67c.76,3.13,5.58,1.8,4.82-1.33Z"/><path class="cls-2" d="M55.2,98.42c20.73.57,41.79,1.1,61.86-4.11,6.2-1.61,12.54-3.78,18.86-2.7a21.05,21.05,0,0,1,13.2,8.44c5.67,7.77,6,18.07,6.13,27.68a2.09,2.09,0,0,1-.37,1.5,2.06,2.06,0,0,1-1,.5L137.54,134a52.61,52.61,0,0,0-10.14,3.42c-2,1-3.92,2.27-6.1,2.81a31.85,31.85,0,0,1-5.45.52c-2,.15-4,.55-6.07.85C92,144.26,74,139.13,57,133.17c-.52-.19-1.11-.45-1.24-1a1.8,1.8,0,0,1,.12-.91c1.72-5.69,0-11.77-.63-17.69a51.6,51.6,0,0,1,.57-15.39"/><path class="cls-3" d="M55.2,100.92c17.39.48,34.88.88,52.1-2,4.29-.72,8.51-1.68,12.7-2.82s8.2-2.3,12.45-2.29c7.28,0,13.38,4.56,16.6,10.92a33.76,33.76,0,0,1,3.14,11.49c.23,2,.36,4.11.44,6.17,0,1.1.07,2.19.09,3.29,0,.48,0,1,0,1.43,0,.27,0,.88,0,.85l.9-.89a5.2,5.2,0,0,1-1.89.62l-2.39.63-5.28,1.39c-3.29.87-6.6,1.7-9.89,2.61a45.33,45.33,0,0,0-9.15,3.53,23.24,23.24,0,0,1-3.58,1.75,17.5,17.5,0,0,1-4.67.6c-3.22.17-6.37.9-9.57,1.24a72,72,0,0,1-9.63.35A95.87,95.87,0,0,1,78.15,137c-3.56-.85-7.08-1.85-10.58-2.94q-2.73-.84-5.45-1.76l-2.7-.92-.9-.31-.89-.31.25.17.34,1.26a9.88,9.88,0,0,1,.42-1.83c.15-.74.25-1.5.33-2.26a24.7,24.7,0,0,0,.08-3.94c-.16-2.91-.67-5.78-1.09-8.66a51,51,0,0,1,.23-16.63,2.56,2.56,0,0,0-1.74-3.08,2.53,2.53,0,0,0-3.08,1.75,55,55,0,0,0-.82,14.37c.36,4.56,1.51,9.06,1.54,13.65a18,18,0,0,1-.19,3,18,18,0,0,0-.68,3.61c.13,2.78,3.19,3.43,5.32,4.17,4.36,1.5,8.76,2.91,13.2,4.15a107.18,107.18,0,0,0,27.48,4.32,86.66,86.66,0,0,0,14-1.24c2.16-.34,4.33-.32,6.49-.56a17.71,17.71,0,0,0,6.32-2.05,44.14,44.14,0,0,1,5.88-2.73c2.14-.74,4.33-1.31,6.51-1.88l14.14-3.72c2.32-.61,4.74-1.17,5.1-3.94a37.5,37.5,0,0,0,0-5.9,69.31,69.31,0,0,0-1.36-12.27c-1.7-7.82-6-15.18-13.23-19.05a22.87,22.87,0,0,0-12.23-2.62c-4.7.28-9.23,1.65-13.75,2.85-17.92,4.74-36.58,4.81-55,4.38-2.3,0-4.6-.12-6.9-.18-3.21-.09-3.21,4.91,0,5Z"/><path class="cls-4" d="M64.65,95.12,57.86,83A126.33,126.33,0,0,1,51.75,71.3,36.54,36.54,0,0,1,50,46.56c.89-3.1-3.94-4.42-4.82-1.33a41.15,41.15,0,0,0,1.61,27.16,116,116,0,0,0,6.23,12.28l7.29,13c1.57,2.81,5.89.29,4.31-2.52Z"/><path class="cls-4" d="M76.88,95.06c-.33-.17-.64-.34-.95-.54l-.46-.3c-.16-.11-.38-.28-.1-.06a11.9,11.9,0,0,1-1.59-1.5l-.35-.42c-.26-.29.31.46-.08-.1-.21-.3-.41-.6-.6-.91s-.34-.64-.51-1,.05.16,0-.1-.13-.33-.19-.5c-1.06-3-1.53-6.1-3.84-8.41a2.5,2.5,0,0,0-3.54,3.54c.13.12.24.26.37.38s-.2-.32.05.07a9.94,9.94,0,0,1,.53.89c.09.18.18.37.26.56-.14-.32,0-.13,0,.09s.24.67.35,1a43.38,43.38,0,0,0,1.54,4.59,14.79,14.79,0,0,0,6.61,7,2.5,2.5,0,0,0,2.53-4.32Z"/><path class="cls-4" d="M79.24,98a13.44,13.44,0,0,0,.62-12.71,2.51,2.51,0,0,0-3.42-.9,2.57,2.57,0,0,0-.9,3.42q.17.38-.06-.15l.12.31a6.45,6.45,0,0,1,.21.62,10.56,10.56,0,0,1,.27,1.11c0,.11,0,.21,0,.32,0-.39-.06-.45,0-.18s0,.44,0,.66a10,10,0,0,1,0,1.22c0,.09-.1.52-.05.57q.09-.58,0-.18l-.06.33a12.14,12.14,0,0,1-.29,1.19c-.06.18-.12.36-.19.54s-.07.2-.11.3l.06-.14c-.2.39-.39.78-.62,1.15A2.5,2.5,0,1,0,79.24,98Z"/><path class="cls-4" d="M94.1,97A12.74,12.74,0,0,0,94.61,90c-.46-2.27-1.87-4.16-2.52-6.36a14.57,14.57,0,0,0-1.17-3.13,20.82,20.82,0,0,0-2.14-2.83A17.42,17.42,0,0,1,86,71.74c-1-3-5.81-1.75-4.82,1.33a25.36,25.36,0,0,0,2.69,6.34C85,81,86.5,82.28,87.06,84.19S88.7,88,89.42,89.94a8.06,8.06,0,0,1-.14,5.74A2.51,2.51,0,0,0,91,98.75,2.54,2.54,0,0,0,94.1,97Z"/><path class="cls-4" d="M103.28,95.42c-1.07-4.07-2-8.19-3.28-12.21a35.27,35.27,0,0,0-5.15-10.32,13.26,13.26,0,0,1-2.34-4.82c-.45-1.92-.71-3.88-1.15-5.8a69.34,69.34,0,0,0-4-11.87,2.51,2.51,0,0,0-3.42-.89,2.56,2.56,0,0,0-.89,3.42A62.61,62.61,0,0,1,86.64,64c.43,1.92.66,3.89,1.15,5.8a16.18,16.18,0,0,0,2.5,5.23,38.93,38.93,0,0,1,3,4.7,31.07,31.07,0,0,1,2,5.2c1.17,3.89,2.12,7.85,3.15,11.78.82,3.11,5.65,1.79,4.82-1.33Z"/><path class="cls-4" d="M108.17,91.1c-1-1.87-.92-4.06-.9-6.13,0-2.34,0-4.69,0-7a63,63,0,0,0-1.94-14.53c-.84-3.1-5.66-1.79-4.82,1.33a59.94,59.94,0,0,1,1.79,14.61c.09,4.69-.76,10,1.59,14.28,1.55,2.82,5.87.3,4.32-2.52Z"/><path class="cls-4" d="M108.72,92.38l-1-2.19a1.88,1.88,0,0,0-.64-.7,1.94,1.94,0,0,0-.85-.45,2,2,0,0,0-1-.05,2,2,0,0,0-.93.3l-.5.39a2.5,2.5,0,0,0-.65,1.11l-.09.66a2.53,2.53,0,0,0,.34,1.26l1,2.19a1.9,1.9,0,0,0,.65.7,1.8,1.8,0,0,0,.85.45,1.89,1.89,0,0,0,1,0,2,2,0,0,0,.93-.3l.5-.39a2.41,2.41,0,0,0,.64-1.1l.09-.67a2.43,2.43,0,0,0-.34-1.26Z"/><path class="cls-4" d="M119.93,94a10.52,10.52,0,0,0,5.15-6.19,24.45,24.45,0,0,0,1-7.28,2.53,2.53,0,0,0-2.5-2.5,2.55,2.55,0,0,0-2.5,2.5c0,1-.07,2.07-.17,3.1,0,.12,0,.24,0,.36,0,.33,0,0,0-.12-.07.25-.08.54-.13.8a12.76,12.76,0,0,1-.36,1.48c-.07.22-.15.44-.23.67s0,0,0-.11c-.06,0-.11.24-.15.31a6.8,6.8,0,0,1-.38.7,2.9,2.9,0,0,1-.19.29c0,.06-.28.37-.06.11s-.14.16-.15.17l-.25.27c-.18.18-.36.35-.55.51s0,.07.06,0c-.06.11-.28.2-.38.26a7.58,7.58,0,0,1-.74.4,2.52,2.52,0,0,0-.89,3.42,2.56,2.56,0,0,0,3.42.9Z"/><path class="cls-4" d="M134.44,91.61c2.34-4.83,2.55-10.13,2.08-15.4A51.81,51.81,0,0,0,135.34,68c-.69-2.65-2.12-5-3.11-7.53a76.79,76.79,0,0,1-3.85-15.54c-.39-2.31-1.15-5-.57-7.34a11.16,11.16,0,0,1,1.54-3A17.53,17.53,0,0,0,131,30.65a5.77,5.77,0,0,1,3.42-4.13,5.6,5.6,0,0,1,5,.27c2.79,1.62,5.31-2.7,2.52-4.32A11,11,0,0,0,129.17,24c-2,1.8-2.52,4.1-3.39,6.51A22.37,22.37,0,0,1,124,33.68a10.9,10.9,0,0,0-1.35,4.48c-.25,2.83.47,5.76.94,8.53s1,5.8,1.75,8.65a53.5,53.5,0,0,0,2.79,8.29A32.93,32.93,0,0,1,131,71.57c.9,5.57,1.69,12.27-.86,17.52a2.57,2.57,0,0,0,.9,3.42,2.53,2.53,0,0,0,3.42-.9Z"/><path class="cls-4" d="M139,92.4a68.18,68.18,0,0,0,6.19-11c.91-1.94,1.89-3.89,2.61-5.91s.64-4.16,1-6.3c.29-1.94,1.08-3.78,1.47-5.71a32.88,32.88,0,0,0,.44-6.72q0-6.93-.73-13.83a2.57,2.57,0,0,0-2.5-2.5,2.52,2.52,0,0,0-2.5,2.5c.43,4.43.68,8.88.72,13.34a28.87,28.87,0,0,1-.25,5.88c-.4,2-1.16,3.83-1.49,5.81s-.23,4.18-.94,6.2c-.62,1.75-1.51,3.44-2.3,5.12a66,66,0,0,1-6,10.62,2.51,2.51,0,0,0,.9,3.42A2.55,2.55,0,0,0,139,92.4Z"/><path class="cls-5" d="M99.84,155.7l-13,5.19a9.75,9.75,0,0,0-2.07,1,10.24,10.24,0,0,1-2.3,1.3,30.24,30.24,0,0,0-6.28,3.06c-1.34.78-3.39,1.44-4.63,2.37-3.14,2.38-6.36,3.49-9.52,5.85a22.29,22.29,0,0,1-2.64,1.63,23.61,23.61,0,0,1-3.17,1.79c-5.36,2-9.83,5.82-15.08,8.07a4.69,4.69,0,0,1-1.63.47,4.43,4.43,0,0,1-2.07-.51,10.63,10.63,0,0,1-5.81-6.9,8.93,8.93,0,0,1,2.46-8.54c2.48-2.26,6-2.75,9.36-3.25A144.54,144.54,0,0,0,68.78,161c1.66-.58,3.32-1.18,5-1.77q11.53-4.08,23.43-7"/><path class="cls-4" d="M99.68,155.1l-7.65,3a61.9,61.9,0,0,0-7,2.84c-.82.45-1.53,1.07-2.39,1.46-1,.48-2.14.8-3.18,1.29-1.93.91-3.71,2.09-5.66,3-2.16,1-4,2.43-6,3.6-2.21,1.24-4.37,2.45-6.46,3.91-3.73,2.61-8,4.09-11.94,6.42-2.08,1.25-4.13,2.57-6.28,3.7a10.17,10.17,0,0,1-3.63,1.5c-1.33.08-2.83-.91-3.84-1.72-3.7-2.93-5-8.49-1.9-12.35,2.95-3.66,8.65-3.67,12.89-4.41a144.38,144.38,0,0,0,15.75-3.66c5.81-1.7,11.46-3.9,17.22-5.78s11.78-3.6,17.76-5.08a.62.62,0,0,0-.33-1.2q-8.5,2.1-16.85,4.77c-5.54,1.79-11,3.91-16.54,5.61A143.93,143.93,0,0,1,47,166c-4.42.8-9.87.82-13.38,4a9.68,9.68,0,0,0-1.69,11.55,11.53,11.53,0,0,0,4.5,4.53,6.54,6.54,0,0,0,2.62.93A7.4,7.4,0,0,0,42.59,186c4.73-2.27,8.88-5.5,13.77-7.48A30.45,30.45,0,0,0,62,175.29c2.2-1.53,4.5-2.78,6.83-4.12,1.3-.75,2.48-1.7,3.77-2.45,1.1-.64,2.31-1.07,3.44-1.66s2.28-1.33,3.46-1.93,2.37-1,3.55-1.47,2-1.27,3-1.78c1.45-.7,3-1.22,4.51-1.82L100,156.3c.74-.29.41-1.5-.33-1.2Z"/><path class="cls-5" d="M107.91,152.34c4.84-2.83,10.45-4.35,15.88-5.7a4.9,4.9,0,0,1,3-.25c1.37.41,2.43,1.67,3.78,2.16,2.48.92,2.68.84,4,.72a10.64,10.64,0,0,0,2.74-.59c6.14-2.51,10.16-3.61,15.27-6.3a44.28,44.28,0,0,0,4.43-2.56,28.42,28.42,0,0,1,3.95-2.14l10.77-5.11c.55-.27,1.2-.7,1.11-1.3-.13-.9-1.48-.74-2.29-.34a259.21,259.21,0,0,1-25.7,10.91,12.13,12.13,0,0,1-5.41,1,1.31,1.31,0,0,1-.74-.27,1,1,0,0,1,0-1.31,3,3,0,0,1,1.22-.76c4.89-2,10-3.71,14.91-5.53,5.56-2.05,11.81-3.43,15.7-7.78.18-.31-.11-.72-.45-.79a1.66,1.66,0,0,0-1,.22,272.26,272.26,0,0,1-30,11.53,3.36,3.36,0,0,1-2.92,0,56.16,56.16,0,0,1,10.06-5.3c2.33-.93,4.74-1.72,7-2.86,2.67-1.36,5.29-2.71,8.06-3.84a45.73,45.73,0,0,0,7.58-3.5.81.81,0,0,0,.35-.36c.1-.3-.17-.59-.45-.74-1.06-.58-2.23.46-3.46,1-1,.41-2.41.78-3.75,1.16a27.76,27.76,0,0,0-3.13,1.22c-7.66,3.18-14.56,6.91-22.57,9.06a.8.8,0,0,1-.55,0c-.47-.25,0-.94.43-1.22a105.65,105.65,0,0,1,15-7.19l17.57-7.3c-.77-.76-2-.66-3.09-.46-8.62,1.56-16.62,5.45-25,8.07-3.67,1.15-7.5,2.09-10.67,4.29a15.74,15.74,0,0,0-6.07,8.4,5.68,5.68,0,0,1-.63,1.6,4.67,4.67,0,0,1-1.67,1.27,200.54,200.54,0,0,1-20.49,9.68"/><path class="cls-4" d="M108.23,152.88A44.92,44.92,0,0,1,117.5,149c1.43-.44,2.86-.83,4.31-1.2s3.35-1.25,4.83-.8c1.23.38,2.14,1.42,3.29,2a10.49,10.49,0,0,0,3.09,1c2.31.3,4.56-.68,6.65-1.5,5.29-2,10.57-3.92,15.52-6.72,1.27-.71,2.44-1.57,3.71-2.28,1.51-.83,3.1-1.53,4.66-2.27l4.49-2.13a29.94,29.94,0,0,0,4.59-2.23c1.73-1.26.5-3.1-1.39-2.74a16.57,16.57,0,0,0-3.58,1.59q-2.38,1.14-4.8,2.23c-6.22,2.81-12.56,5.49-19,7.68a15.81,15.81,0,0,1-2.24.62c-.7.13-3.44.41-1.73-.89a10.66,10.66,0,0,1,2.49-1l2.48-.94c3.24-1.21,6.5-2.35,9.74-3.54,4.91-1.8,10.32-3,14.5-6.32.7-.54,2.33-1.59,2.15-2.64s-1.47-1.09-2.3-.76c-3.57,1.41-7,3.1-10.6,4.53s-7.15,2.8-10.77,4.09c-1.81.64-3.63,1.27-5.45,1.87-1.45.48-4.16,1.92-5.64,1.11v1.08a56.32,56.32,0,0,1,10.35-5.41c1.66-.65,3.35-1.24,5-2s3.38-1.66,5.06-2.5c3.4-1.67,7-2.85,10.38-4.55.78-.4,2.42-1,2.56-2s-1.32-1.66-2.22-1.49a7.8,7.8,0,0,0-1.9.82,14.64,14.64,0,0,1-2.54.94,52.93,52.93,0,0,0-5.34,1.9c-3.24,1.37-6.43,2.85-9.65,4.27a97.35,97.35,0,0,1-10.3,4l-1.31.39-.44.12q-.85.21-.09.06c.8-.48,1.59-1,2.4-1.4q2.64-1.44,5.39-2.68c8.09-3.71,16.43-6.93,24.65-10.35.38-.15.69-.71.28-1-1.69-1.38-4-.6-5.95-.16a74.07,74.07,0,0,0-7.72,2.25c-5.16,1.77-10.2,3.87-15.41,5.48-4.57,1.41-9.33,2.69-12.77,6.22a16.42,16.42,0,0,0-3.48,5.3c-.48,1.18-.62,2.69-1.69,3.47a28.58,28.58,0,0,1-3.76,2.06q-8.52,4.45-17.42,8.06c-.74.3-.42,1.51.33,1.21,4.86-2,9.66-4.13,14.36-6.47,2.3-1.15,4.72-2.24,6.9-3.62,1.89-1.2,2-3.42,2.91-5.29,2.31-4.61,6.51-7,11.25-8.59s9.59-3.14,14.34-4.9c2.73-1,5.48-2,8.27-2.85,1.4-.42,2.8-.8,4.22-1.13s3.55-1.13,4.73-.16l.28-1c-7.33,3-14.69,6-22,9.15a86.87,86.87,0,0,0-10,4.92c-.72.43-2.07,1.17-1.68,2.25.47,1.28,2.43.32,3.25.08,7-2.13,13.61-5.53,20.38-8.38a42.74,42.74,0,0,1,4.9-1.77,24.94,24.94,0,0,0,2.4-.79c.79-.32,1.77-1.15,2.65-1.11s-.07.43-.32.57-.76.43-1.15.63c-.87.44-1.76.82-2.66,1.19-1.58.66-3.18,1.26-4.75,2-2,.9-3.95,1.9-5.91,2.89s-4.22,1.83-6.37,2.67a58.11,58.11,0,0,0-11.09,5.7.64.64,0,0,0,0,1.08,3.83,3.83,0,0,0,3,.17c1.66-.45,3.3-1.06,4.93-1.61q4.77-1.62,9.49-3.4t9.14-3.66c1.3-.55,2.6-1.1,3.9-1.67l2.19-1c.16-.07,1.34-.52,1.34-.53,0,.14-.71.7-.81.79-4.15,3.77-10.13,5-15.26,6.89-3,1.1-6.05,2.17-9.07,3.29-1.5.56-3,1.13-4.49,1.73-.94.38-2.1.78-2.34,1.9-.55,2.62,3.63,1.84,4.93,1.5a82.4,82.4,0,0,0,9.2-3.37q9.15-3.62,18-7.91c.34-.17,1.6-.95,2-.65.59.49-1.2,1.1-1.44,1.21l-4.7,2.24a77.23,77.23,0,0,0-8.74,4.34,79.86,79.86,0,0,1-15.38,7.28c-2.62,1-5.44,2.58-8.33,2.4a8.21,8.21,0,0,1-3.63-1.29,9,9,0,0,0-3.38-1.76c-1.47-.22-3.08.45-4.48.81-1.59.41-3.17.83-4.74,1.32a46.24,46.24,0,0,0-9.58,4,.63.63,0,0,0,.64,1.08Z"/><path class="cls-5" d="M81.87,142.34c-2.25-1.27-2.31-4.38-2.69-6.94-1.13-7.75-7.71-14-15.17-16.32s-15.62-1.42-23.13.8a15,15,0,0,0-3.72,1.53c-3.42,2.17-4.77,6.71-4,10.69s3.19,7.43,6,10.33a41.63,41.63,0,0,0,18.76,11,14.52,14.52,0,0,0,7.47.46c5-1.3,8.58-6.87,13.74-6.65a12.79,12.79,0,0,1,3.91,1,374.75,374.75,0,0,1,56.17,26.28c5.47,3.14,10.85,6.41,16.25,9.66,2.82,1.69,6.21,3.43,9.23,2.12a9.1,9.1,0,0,0,3.68-3.55c1.83-2.75,3.21-6.57,1.22-9.21a8.53,8.53,0,0,0-3.45-2.38c-10.3-4.66-21.7-6.19-32.56-9.34-5-1.45-9.87-3.25-14.74-5l-10-3.69c-9.33-3.44-18.68-6.88-27.48-11.49"/><path class="cls-4" d="M82.18,141.8c-2-1.28-2.05-4.11-2.35-6.24a18.38,18.38,0,0,0-2-6.2,23.1,23.1,0,0,0-9.78-9.3,30.57,30.57,0,0,0-15.79-2.91,48.47,48.47,0,0,0-8.62,1.35c-2.53.61-5.36,1.23-7.46,2.87-3.45,2.69-4.47,7.57-3.46,11.69,1.22,5,4.91,9.11,8.73,12.36A42.62,42.62,0,0,0,55,153.2a24.23,24.23,0,0,0,7.79,1.66,12.11,12.11,0,0,0,6.62-2.11c1.83-1.17,3.5-2.59,5.41-3.66a8.55,8.55,0,0,1,7.65-.38c5.76,2.07,11.46,4.38,17.09,6.79q16.88,7.19,33,16c5.39,2.95,10.69,6.06,16,9.22,2.71,1.63,5.38,3.37,8.16,4.87,2.11,1.14,4.56,2.15,7,1.68s4.17-2.49,5.46-4.52a11.38,11.38,0,0,0,2.06-6.51,6.18,6.18,0,0,0-3.68-5.12,51.73,51.73,0,0,0-7.58-3c-5.66-1.9-11.49-3.18-17.28-4.56a168.83,168.83,0,0,1-17.68-5.17c-5.94-2.11-11.83-4.33-17.74-6.51S95.46,147.49,89.73,145q-4.11-1.82-8.1-3.88c-.71-.37-1.34.7-.63,1.08,10.24,5.33,21.15,9.16,32,13.14,5.55,2,11.08,4.17,16.7,6,5.4,1.75,10.9,3,16.42,4.34a133.62,133.62,0,0,1,16.06,4.58c2.32.88,5.85,1.83,7.19,4.13s.15,5.36-1.12,7.46c-1.42,2.37-3.37,4.58-6.38,4.33-2.84-.23-5.38-2-7.74-3.47-5.12-3.08-10.22-6.17-15.41-9.12q-14.91-8.5-30.57-15.62-7.78-3.53-15.72-6.71-3.93-1.58-7.9-3.06c-2.21-.83-4.45-1.79-6.87-1.42-4.15.64-7,4.2-10.68,6-4.85,2.32-11-.14-15.54-2.28a40.77,40.77,0,0,1-12.39-9c-3.34-3.59-6.23-8.37-5.27-13.48a9,9,0,0,1,3.45-5.78c2.21-1.55,5.28-2.12,7.88-2.7a37.17,37.17,0,0,1,17.45-.14,23.53,23.53,0,0,1,11.62,7,18.43,18.43,0,0,1,3.67,6.11A39.73,39.73,0,0,1,79,138.55a6.11,6.11,0,0,0,2.55,4.33c.68.43,1.31-.65.63-1.08Z"/><path class="cls-4" d="M38.12,183.1l-.1-1.46a7.77,7.77,0,0,1-.06-1.27c.07-.75.78-1.19,1.35-1.56a13.61,13.61,0,0,1,4.58-1.88c.78-.17.45-1.37-.33-1.21a14.55,14.55,0,0,0-5.17,2.2,3.38,3.38,0,0,0-1.63,2,5.75,5.75,0,0,0,0,1.55l.11,1.59a.64.64,0,0,0,.63.62.63.63,0,0,0,.62-.62Z"/><path class="cls-4" d="M33.89,175.07c2.23.87,4.53.61,6.83.24a21.94,21.94,0,0,0,6.59-1.71c.72-.37.08-1.45-.63-1.08a20.1,20.1,0,0,1-6.06,1.54c-2.18.35-4.29.62-6.4-.2-.75-.29-1.07.92-.33,1.21Z"/><path class="cls-4" d="M163.3,183.5a17.56,17.56,0,0,0-1.79-2.7,8,8,0,0,0-2.68-2,46.43,46.43,0,0,1-6.23-3.76c-.66-.46-1.29.62-.63,1.08a42.86,42.86,0,0,0,5.9,3.6,7.84,7.84,0,0,1,2.58,1.74,14.67,14.67,0,0,1,1.77,2.64.63.63,0,0,0,1.08-.63Z"/><path class="cls-4" d="M165.91,174.87a5.67,5.67,0,0,1-4.36.88c-1.72-.23-3.43-.71-5.13-1.08-.79-.18-1.12,1-.33,1.2a46.94,46.94,0,0,0,5.85,1.17,6.59,6.59,0,0,0,4.86-1.28c.62-.51-.27-1.39-.89-.89Z"/><path class="cls-4" d="M73.65,132.25c1,1.15,2,2.36,2.89,3.59.1.12.31,0,.22-.13-.94-1.24-1.9-2.47-2.93-3.64-.11-.12-.28.06-.18.18Z"/><path class="cls-4" d="M64.13,122.69a10.06,10.06,0,0,1,1.55,1.51c.1.12.28,0,.17-.18a11.1,11.1,0,0,0-1.59-1.55c-.05,0-.14,0-.17,0a.13.13,0,0,0,0,.17Z"/><path class="cls-4" d="M74.16,136.35l2.2,2.49a.12.12,0,0,0,.18-.17l-2.21-2.5c-.1-.12-.28.06-.17.18Z"/><path class="cls-4" d="M60.75,121.63c1.42,1.42,2.79,2.87,4.15,4.34.1.12.28-.06.17-.18-1.35-1.47-2.73-2.92-4.14-4.33-.11-.12-.29.06-.18.17Z"/><path class="cls-4" d="M74.13,135.11c.84.84,1.71,1.65,2.62,2.42.12.1.3-.08.18-.18-.91-.77-1.78-1.58-2.62-2.42-.12-.11-.29.07-.18.18Z"/><path class="cls-4" d="M61.28,120.8c1.36,1.28,2.64,2.64,3.88,4,.1.12.28-.06.17-.18-1.23-1.4-2.51-2.77-3.87-4-.12-.11-.29.07-.18.18Z"/><path class="cls-4" d="M73.54,137.86l2,1.85c.11.11.29-.07.17-.18l-2-1.85c-.12-.11-.29.07-.18.18Z"/><path class="cls-4" d="M57.92,121A45.62,45.62,0,0,1,64,127.77c.1.13.27,0,.17-.18a44.93,44.93,0,0,0-6.05-6.8c-.13-.11-.3.07-.18.17Z"/><path class="cls-4" d="M73.06,140.15a25.45,25.45,0,0,0,2.78,2c.13.09.26-.13.12-.22a25.12,25.12,0,0,1-2.73-2c-.12-.1-.3.07-.17.18Z"/><path class="cls-4" d="M56.41,120.9c3.22,1.2,5.07,4.35,6.82,7.1.09.13.3,0,.22-.13-1.79-2.81-3.69-6-7-7.21-.15-.06-.21.18-.07.24Z"/><path class="cls-4" d="M71.61,140.7A33.59,33.59,0,0,0,74.1,143c.13.11.3-.07.18-.17a33.77,33.77,0,0,1-2.49-2.29c-.11-.12-.29.06-.18.17Z"/><path class="cls-4" d="M57.84,124A54.28,54.28,0,0,1,62,128.8c.1.13.28-.05.18-.17A54.48,54.48,0,0,0,58,123.85a.12.12,0,0,0-.18.17Z"/><path class="cls-4" d="M70.11,141c1.19,1.19,2.4,2.35,3.65,3.47.12.11.29-.07.17-.17q-1.87-1.68-3.64-3.48c-.11-.11-.29.07-.18.18Z"/><path class="cls-4" d="M57.34,126.69q1.66,1.91,3.31,3.83c.11.12.28-.05.18-.18-1.1-1.28-2.2-2.55-3.32-3.82-.1-.12-.28,0-.17.17Z"/><path class="cls-4" d="M69.86,141.6a42.38,42.38,0,0,1,2.83,3.72c.09.13.3,0,.21-.13A43.43,43.43,0,0,0,70,141.42c-.1-.12-.28.06-.18.18Z"/><path class="cls-4" d="M56.24,128.28c1.17,1.16,2.38,2.28,3.59,3.4a.12.12,0,0,0,.17-.18c-1.21-1.11-2.41-2.24-3.58-3.4a.13.13,0,0,0-.18.18Z"/><path class="cls-4" d="M69.21,144.33c.49.55,1,1.1,1.44,1.66.11.12.28-.06.18-.18-.47-.56-1-1.11-1.44-1.66-.11-.12-.28.06-.18.18Z"/><path class="cls-4" d="M54.6,129.19q1.68,2,3.47,3.79c.11.11.29-.06.18-.18Q56.47,131,54.78,129c-.11-.12-.28.06-.18.18Z"/><path class="cls-4" d="M67.69,145.48c.5.39,1,.75,1.55,1.09.14.09.26-.12.13-.21-.53-.34-1.05-.71-1.55-1.09a.14.14,0,0,0-.18,0,.14.14,0,0,0,0,.17Z"/><path class="cls-4" d="M53.78,129.55c1.25,1.37,2.45,2.8,3.58,4.27.1.13.28,0,.18-.18-1.14-1.47-2.33-2.89-3.59-4.27-.11-.11-.28.06-.17.18Z"/><path class="cls-4" d="M65.71,146.61a24.41,24.41,0,0,0,2.6,2.16c.14.09.26-.13.13-.22a23.41,23.41,0,0,1-2.55-2.11c-.12-.11-.3.06-.18.17Z"/><path class="cls-4" d="M52.83,129.39c1.07,1.54,2.11,3.11,3.15,4.67.09.14.3,0,.21-.12-1-1.57-2.07-3.14-3.14-4.68-.09-.13-.31,0-.22.13Z"/><path class="cls-4" d="M45.12,121.87l1.46,1.39c.11.11.29-.06.17-.17l-1.46-1.4a.12.12,0,0,0-.17.18Z"/><path class="cls-4" d="M48.84,127.71A8.87,8.87,0,0,1,46,125.18a7,7,0,0,0-2.24-2.54c-.15-.08-.27.14-.13.21,1.11.59,1.63,1.75,2.34,2.72a9.13,9.13,0,0,0,2.75,2.35.12.12,0,0,0,.13-.21Z"/><path class="cls-4" d="M54.33,134c-1.48-1.58-2.06-3.84-3.81-5.19-.12-.1-.3.08-.17.18,1.74,1.35,2.33,3.61,3.8,5.19.11.12.29-.06.18-.18Z"/><path class="cls-4" d="M66.92,149.25c-.88-1-1.77-2-2.64-3-.11-.12-.28.05-.18.18l2.64,3c.11.12.29-.06.18-.18Z"/><path class="cls-4" d="M59.63,144.69A56.75,56.75,0,0,0,63.84,150c.1.12.28-.06.17-.18a55.93,55.93,0,0,1-4.16-5.29c-.1-.13-.31,0-.22.13Z"/><path class="cls-4" d="M42.07,123.25a73.7,73.7,0,0,1,10.21,10.83c.1.12.32,0,.22-.13a74.26,74.26,0,0,0-10.25-10.87c-.13-.11-.3.07-.18.17Z"/><path class="cls-4" d="M53.25,133.89c-.37-.36-.74-.7-1.12-1a.13.13,0,0,0-.18,0,.12.12,0,0,0,0,.17c.38.34.76.68,1.12,1,.12.11.29-.06.18-.17Z"/><path class="cls-4" d="M65.78,149.5c-1.36-1.57-2.62-3.23-3.85-4.9-.1-.13-.32,0-.22.13,1.25,1.69,2.52,3.36,3.89,5,.11.12.28-.06.18-.18Z"/><path class="cls-4" d="M69.65,143.31c.35.27.72.53,1.1.79a.13.13,0,0,0,.17,0,.13.13,0,0,0,0-.17c-.37-.25-.74-.52-1.1-.79a.13.13,0,1,0-.12.22Z"/><path class="cls-4" d="M55,129.13a47.4,47.4,0,0,1,3.65,3.13c.12.11.3-.07.18-.18-1.17-1.1-2.38-2.15-3.65-3.13-.13-.1-.31.08-.18.18Z"/><path class="cls-4" d="M49.87,133.56c-2.9-3.57-5.78-7.16-9-10.45-.11-.12-.29.06-.18.18,3.22,3.29,6.11,6.88,9,10.44.11.13.28,0,.18-.17Z"/><path class="cls-4" d="M62.47,149.77l-4.39-5.23c-.1-.12-.28.06-.18.18q2.2,2.61,4.39,5.23c.1.12.28,0,.18-.18Z"/><path class="cls-4" d="M46.61,132.54c-2-2.86-5-4.88-6.83-7.92-.08-.14-.3,0-.21.12,1.78,3.05,4.79,5.07,6.82,7.93.09.13.31,0,.22-.13Z"/><path class="cls-4" d="M60.21,149.76c-1.56-1.77-3.13-3.54-4.66-5.33-.1-.12-.28,0-.18.18,1.54,1.79,3.1,3.56,4.66,5.33.11.12.29-.06.18-.18Z"/><path class="cls-4" d="M52.81,144.06a14.35,14.35,0,0,0,3.58,3.79c.14.09.26-.13.13-.22A13.77,13.77,0,0,1,53,143.94c-.1-.14-.31,0-.22.12Z"/><path class="cls-4" d="M37.84,125.39a81.9,81.9,0,0,1,6,6.17c.1.12.28-.05.17-.17a80.07,80.07,0,0,0-6-6.18c-.12-.11-.3.07-.18.18Z"/><path class="cls-4" d="M52.89,148.16q-1.91-3.09-4-6.08c-.09-.13-.31,0-.21.13,1.38,2,2.72,4,4,6.08a.12.12,0,0,0,.21-.13Z"/><path class="cls-4" d="M50.9,143.18c1.42,1.91,2.79,3.87,4,5.91.09.13.3,0,.22-.13-1.24-2-2.61-4-4-5.91-.09-.12-.31,0-.21.13Z"/><path class="cls-4" d="M51,147.75c-1.86-2.42-3.78-4.8-5.54-7.29-.09-.13-.31,0-.21.12,1.75,2.5,3.67,4.88,5.53,7.3.1.12.32,0,.22-.13Z"/><path class="cls-4" d="M41.73,138.7c1.47,1.86,3,3.68,4.53,5.47.1.12.28-.06.17-.18q-2.32-2.69-4.52-5.46c-.1-.13-.27.05-.18.17Z"/><path class="cls-4" d="M36.49,131.59c1.2,1.75,2.45,3.46,3.73,5.15.1.13.31,0,.22-.12-1.29-1.69-2.53-3.41-3.74-5.15-.09-.13-.3,0-.21.12Z"/><path class="cls-4" d="M43.5,142.83c-1.37-2.9-4.35-4.6-5.82-7.43-.08-.14-.29,0-.22.13,1.48,2.83,4.45,4.53,5.83,7.43.07.15.28,0,.21-.13Z"/><path class="cls-4" d="M67,123.55l-1.74-1.85a.12.12,0,0,0-.18.17l1.74,1.86c.11.12.29-.06.18-.18Z"/><path class="cls-4" d="M76.76,134.23l-3.6-3.95c-.11-.12-.29.06-.18.18l3.6,3.95c.11.11.28-.06.18-.18Z"/><path class="cls-4" d="M69.91,147.7a13.9,13.9,0,0,0-2.36-2.24c-.13-.1-.31.08-.18.17a14,14,0,0,1,2.36,2.25c.1.12.28-.06.18-.18Z"/><path class="cls-4" d="M75.54,140.11a14.76,14.76,0,0,1-2.45-1.31c-.13-.09-.26.12-.12.21a15,15,0,0,0,2.5,1.34c.15.06.22-.18.07-.24Z"/><path class="cls-4" d="M73,129.21l3.35,3.66c.11.12.28-.06.18-.17L73.12,129c-.1-.12-.28.06-.17.18Z"/><path class="cls-4" d="M62.32,127.7,61.39,126a5.09,5.09,0,0,0-.91-1.41c-.67-.65-1.69-.86-2.25-1.63-.09-.13-.31,0-.22.12.56.77,1.5,1,2.2,1.59a4.75,4.75,0,0,1,1,1.46l.93,1.74c.08.14.29,0,.22-.13Z"/><path class="cls-4" d="M61.46,129.28a16.88,16.88,0,0,1-3.08-4c-.08-.14-.29,0-.21.13a17,17,0,0,0,3.12,4.05.12.12,0,0,0,.17-.18Z"/><path class="cls-4" d="M37.43,134.94l-3-4.28c-.1-.13-.31,0-.22.13l3,4.28c.09.13.3,0,.21-.13Z"/><path class="cls-4" d="M48,133c.18-.82-.86-1.31-1.33-1.81a19.82,19.82,0,0,1-1.84-2.52,18.68,18.68,0,0,0-4.27-4.42c-.13-.1-.26.12-.13.21a18.61,18.61,0,0,1,4.1,4.21c.49.71.94,1.44,1.46,2.12a7.55,7.55,0,0,0,.9,1c.33.29,1,.64.87,1.17,0,.16.21.22.24.07Z"/><path class="cls-4" d="M51.21,133.77c-.81-1.15-1.63-2.31-2.55-3.38s-2.17-2-3.14-3.19C44,125.42,43,123,40.84,122c-.15-.07-.28.14-.13.22,2.17,1.07,3.12,3.45,4.63,5.21.9,1.06,2,1.91,2.93,3A37.85,37.85,0,0,1,51,133.9c.09.13.31,0,.21-.13Z"/><path class="cls-4" d="M71.87,146c-.48-.54-1-1.09-1.39-1.67a.13.13,0,0,0-.17,0s-.09.12,0,.17c.45.59.93,1.16,1.42,1.72.11.12.29-.06.18-.18Z"/><path class="cls-4" d="M70.8,146.94l-1.46-1.6c-.11-.11-.28.06-.17.18l1.45,1.59c.11.12.29-.06.18-.17Z"/><path class="cls-4" d="M57.67,149.76A25.27,25.27,0,0,1,56,147.22c-.08-.14-.3,0-.22.13a26.41,26.41,0,0,0,1.68,2.53c.09.13.31,0,.21-.12Z"/><path class="cls-4" d="M47.41,145.42a3,3,0,0,1-1-1.28.13.13,0,0,0-.15-.09.13.13,0,0,0-.09.15,3.22,3.22,0,0,0,1.08,1.44.12.12,0,0,0,.17,0,.13.13,0,0,0,0-.17Z"/><path class="cls-4" d="M75.92,137l2.21,2.49c.1.13.28-.05.17-.17l-2.21-2.5c-.1-.12-.28.06-.17.18Z"/><path class="cls-4" d="M75.3,138.54l2,1.85c.11.11.29-.07.17-.18l-2-1.85c-.12-.11-.29.07-.18.18Z"/><path class="cls-4" d="M74.82,140.83a24.2,24.2,0,0,0,2.78,2c.13.09.26-.13.12-.22a25.12,25.12,0,0,1-2.73-2c-.12-.1-.3.07-.17.18Z"/><path class="cls-4" d="M73.37,141.38c.8.81,1.63,1.57,2.49,2.3.13.1.3-.08.18-.18a33.77,33.77,0,0,1-2.49-2.29c-.11-.12-.29.06-.18.17Z"/><path class="cls-4" d="M71.87,141.71c1.19,1.19,2.4,2.35,3.65,3.47.12.11.29-.06.17-.17q-1.87-1.68-3.64-3.48c-.11-.11-.29.07-.18.18Z"/><path class="cls-4" d="M71.62,142.28A42.38,42.38,0,0,1,74.45,146c.09.13.3,0,.21-.13a43.43,43.43,0,0,0-2.86-3.77c-.1-.12-.28.06-.18.18Z"/><path class="cls-4" d="M71,145c.49.55,1,1.1,1.45,1.66.1.12.28,0,.17-.18q-.7-.84-1.44-1.65c-.11-.12-.28,0-.18.17Z"/><path class="cls-4" d="M69.45,146.16c.5.39,1,.75,1.55,1.1.14.08.26-.13.13-.22-.53-.34-1-.71-1.55-1.09a.14.14,0,0,0-.18,0,.14.14,0,0,0,0,.17Z"/><path class="cls-4" d="M67.47,147.29a24.52,24.52,0,0,0,2.61,2.16c.13.09.25-.13.12-.22a23.41,23.41,0,0,1-2.55-2.11c-.12-.11-.3.06-.18.17Z"/><path class="cls-4" d="M68.68,149.93l-2.64-3c-.11-.12-.28.06-.18.18l2.64,3c.11.12.29-.06.18-.18Z"/><path class="cls-4" d="M61.39,145.37a58.44,58.44,0,0,0,4.21,5.34c.11.12.28-.06.17-.18a55.93,55.93,0,0,1-4.16-5.29c-.1-.13-.31,0-.22.13Z"/><path class="cls-4" d="M67.54,150.18c-1.36-1.57-2.62-3.23-3.85-4.9-.1-.12-.32,0-.22.13,1.25,1.69,2.52,3.36,3.89,5,.11.12.28-.06.18-.18Z"/><path class="cls-4" d="M71.41,144c.36.27.72.53,1.1.79a.13.13,0,0,0,.17-.05.13.13,0,0,0-.05-.17c-.37-.25-.74-.51-1.1-.79a.13.13,0,1,0-.12.22Z"/><path class="cls-4" d="M64.23,150.45c-1.46-1.74-2.93-3.48-4.39-5.23-.1-.12-.28.06-.18.18q2.21,2.61,4.39,5.23c.1.12.28,0,.18-.18Z"/><path class="cls-4" d="M62,150.44c-1.56-1.77-3.13-3.53-4.66-5.33-.1-.12-.28.06-.17.18,1.53,1.79,3.09,3.56,4.65,5.33.11.12.29-.06.18-.18Z"/><path class="cls-4" d="M54.57,144.74a14.35,14.35,0,0,0,3.58,3.79c.14.09.26-.13.13-.22a13.77,13.77,0,0,1-3.49-3.69c-.09-.14-.31,0-.22.12Z"/><path class="cls-4" d="M54.65,148.84q-1.9-3.09-4-6.08c-.09-.13-.31,0-.21.13q2.09,3,4,6.08a.12.12,0,0,0,.21-.13Z"/><path class="cls-4" d="M52.66,143.86c1.42,1.92,2.79,3.87,4,5.91a.13.13,0,0,0,.22-.13c-1.24-2-2.61-4-4-5.91-.09-.12-.31,0-.21.13Z"/><path class="cls-4" d="M52.73,148.43c-1.86-2.42-3.78-4.8-5.54-7.29-.09-.13-.31,0-.21.12,1.76,2.5,3.67,4.88,5.53,7.3.1.12.32,0,.22-.13Z"/><path class="cls-4" d="M43.5,139.38q2.19,2.79,4.52,5.47c.1.12.28-.06.17-.18-1.55-1.78-3.06-3.61-4.52-5.46-.1-.13-.27,0-.17.17Z"/><path class="cls-4" d="M45.26,143.51c-1.37-2.9-4.35-4.59-5.82-7.43-.07-.14-.29,0-.22.13,1.48,2.83,4.45,4.53,5.83,7.43.07.15.28,0,.21-.13Z"/><path class="cls-4" d="M71.67,148.38a13.9,13.9,0,0,0-2.36-2.24c-.13-.1-.31.08-.18.17a14,14,0,0,1,2.36,2.25c.1.12.28-.06.18-.18Z"/><path class="cls-4" d="M77.3,140.79a14.76,14.76,0,0,1-2.45-1.31c-.13-.09-.26.12-.12.21a15,15,0,0,0,2.5,1.34c.15.06.22-.18.07-.24Z"/><path class="cls-4" d="M73.63,146.72c-.48-.54-.95-1.09-1.39-1.67a.13.13,0,0,0-.17,0s-.09.12,0,.17c.45.59.93,1.17,1.42,1.72.11.12.29-.06.18-.18Z"/><path class="cls-4" d="M72.56,147.62,71.1,146c-.1-.12-.28.05-.17.17l1.45,1.59a.12.12,0,0,0,.18-.17Z"/><path class="cls-4" d="M59.43,150.44a27.12,27.12,0,0,1-1.67-2.54c-.08-.14-.3,0-.22.13a26.56,26.56,0,0,0,1.68,2.54c.09.12.31,0,.21-.13Z"/><path class="cls-4" d="M49.17,146.1a3,3,0,0,1-1-1.28.13.13,0,0,0-.15-.09.14.14,0,0,0-.09.16A3.25,3.25,0,0,0,49,146.32a.12.12,0,0,0,.17,0,.13.13,0,0,0,0-.17Z"/><path class="cls-4" d="M73.45,131.43c1,1.15,2,2.36,2.89,3.59.1.13.31,0,.22-.12-.94-1.25-1.9-2.48-2.93-3.65-.11-.12-.28.06-.18.18Z"/><path class="cls-4" d="M74,135.53l2.2,2.5c.11.12.29-.06.18-.18l-2.21-2.49c-.1-.13-.28,0-.17.17Z"/><path class="cls-4" d="M73.93,134.29c.84.84,1.71,1.65,2.62,2.42.12.1.3-.07.18-.18-.91-.76-1.78-1.57-2.62-2.41a.12.12,0,0,0-.18.17Z"/><path class="cls-4" d="M73.34,137l2,1.85a.12.12,0,0,0,.17-.18l-2-1.84c-.12-.11-.29.06-.18.17Z"/><path class="cls-4" d="M72.86,139.33a24.2,24.2,0,0,0,2.78,2c.13.09.26-.13.12-.21a26.62,26.62,0,0,1-2.73-2c-.12-.1-.3.08-.17.18Z"/><path class="cls-4" d="M71.41,139.89c.8.8,1.63,1.57,2.49,2.29.13.1.3-.08.18-.18a33.77,33.77,0,0,1-2.49-2.29c-.11-.11-.29.06-.18.18Z"/><path class="cls-4" d="M69.91,140.21c1.19,1.2,2.4,2.36,3.65,3.48.12.1.29-.07.17-.18q-1.87-1.68-3.64-3.47c-.11-.12-.29.06-.18.17Z"/><path class="cls-4" d="M69.66,140.78a42.38,42.38,0,0,1,2.83,3.72c.09.14.3,0,.21-.12a43.58,43.58,0,0,0-2.86-3.78c-.1-.12-.28.06-.18.18Z"/><path class="cls-4" d="M69,143.52q.73.81,1.44,1.65c.11.13.28,0,.18-.17-.47-.56-.95-1.12-1.44-1.66-.11-.12-.28.06-.18.18Z"/><path class="cls-4" d="M67.49,144.67c.5.38,1,.75,1.55,1.09.14.09.26-.13.13-.22-.53-.34-1-.71-1.55-1.09a.13.13,0,0,0-.18.05.14.14,0,0,0,0,.17Z"/><path class="cls-4" d="M65.51,145.8a25.35,25.35,0,0,0,2.6,2.15c.14.09.26-.12.13-.22a23.41,23.41,0,0,1-2.55-2.11c-.12-.11-.3.07-.18.18Z"/><path class="cls-4" d="M66.72,148.44c-.88-1-1.77-2-2.64-3-.11-.12-.28.06-.18.18l2.64,3a.12.12,0,0,0,.18-.17Z"/><path class="cls-4" d="M69.45,142.49c.35.27.72.54,1.1.79a.12.12,0,0,0,.17-.05.13.13,0,0,0,0-.17c-.37-.25-.74-.51-1.1-.79,0,0-.14,0-.17,0a.12.12,0,0,0,0,.17Z"/><path class="cls-4" d="M76.56,133.41,73,129.46c-.11-.11-.29.06-.18.18l3.6,4c.11.12.28-.06.18-.18Z"/><path class="cls-4" d="M69.71,146.88a14.3,14.3,0,0,0-2.36-2.24c-.13-.1-.31.08-.18.18a13.53,13.53,0,0,1,2.36,2.24c.1.12.28-.05.18-.18Z"/><path class="cls-4" d="M75.34,139.29A14.76,14.76,0,0,1,72.89,138c-.13-.09-.26.13-.12.21a15,15,0,0,0,2.5,1.34c.15.06.22-.18.07-.24Z"/><path class="cls-4" d="M72.75,128.39l3.35,3.67c.11.12.28-.06.18-.18l-3.36-3.67c-.1-.11-.28.06-.17.18Z"/><path class="cls-4" d="M71.67,145.23c-.48-.54-1-1.1-1.39-1.67a.13.13,0,0,0-.17-.05s-.09.12,0,.17c.45.59.93,1.17,1.42,1.72a.12.12,0,0,0,.18-.17Z"/><path class="cls-4" d="M70.6,146.12l-1.46-1.59c-.11-.12-.28.06-.17.18l1.45,1.59c.11.12.29-.06.18-.18Z"/><path class="cls-4" d="M75.72,136.21c.73.84,1.47,1.67,2.21,2.5.1.12.28-.06.17-.18L75.89,136c-.1-.12-.28.05-.17.17Z"/><path class="cls-4" d="M75.1,137.72l2,1.85c.11.11.29-.06.17-.17-.65-.62-1.3-1.24-2-1.85-.12-.11-.29.06-.18.17Z"/><path class="cls-4" d="M74.62,140a24.2,24.2,0,0,0,2.78,2c.13.09.26-.13.12-.21a26.62,26.62,0,0,1-2.73-2c-.12-.1-.3.08-.17.18Z"/><path class="cls-4" d="M73.17,140.57c.8.8,1.63,1.57,2.49,2.29.13.1.3-.07.18-.18a33.77,33.77,0,0,1-2.49-2.29c-.11-.11-.29.06-.18.18Z"/><path class="cls-4" d="M71.68,140.89q1.77,1.8,3.64,3.48a.12.12,0,0,0,.17-.18q-1.87-1.68-3.64-3.47a.12.12,0,1,0-.17.17Z"/><path class="cls-4" d="M71.42,141.46a42.38,42.38,0,0,1,2.83,3.72c.09.14.31,0,.21-.12a42,42,0,0,0-2.86-3.77c-.1-.13-.28.05-.18.17Z"/><path class="cls-4" d="M70.77,144.2c.49.54,1,1.09,1.45,1.65.1.13.28,0,.17-.17-.47-.56-1-1.11-1.44-1.66-.11-.12-.28.06-.18.18Z"/><path class="cls-4" d="M69.25,145.35c.5.38,1,.75,1.55,1.09.14.09.26-.13.13-.22-.53-.34-1.05-.7-1.55-1.09a.12.12,0,0,0-.17.05.13.13,0,0,0,0,.17Z"/><path class="cls-4" d="M67.27,146.48a24.43,24.43,0,0,0,2.61,2.15c.13.09.25-.12.12-.22a23.41,23.41,0,0,1-2.55-2.11c-.12-.11-.29.07-.18.18Z"/><path class="cls-4" d="M68.48,149.12l-2.64-3c-.11-.12-.28.06-.18.18l2.64,3c.11.13.29,0,.18-.17Z"/><path class="cls-4" d="M67.34,149.36c-1.36-1.57-2.62-3.22-3.85-4.89-.1-.13-.32,0-.22.12,1.25,1.69,2.52,3.36,3.89,4.95.11.12.28,0,.18-.18Z"/><path class="cls-4" d="M71.21,143.17c.36.28.72.54,1.1.79a.13.13,0,0,0,.17,0,.14.14,0,0,0,0-.18c-.37-.25-.74-.51-1.1-.78,0-.05-.14,0-.17,0a.12.12,0,0,0,0,.17Z"/><path class="cls-4" d="M71.47,147.56a13.92,13.92,0,0,0-2.36-2.24c-.13-.1-.31.08-.18.18a13.53,13.53,0,0,1,2.36,2.24c.1.13.28-.05.18-.18Z"/><path class="cls-4" d="M77.1,140a15.17,15.17,0,0,1-2.45-1.31c-.13-.09-.26.13-.12.22a15,15,0,0,0,2.5,1.33c.15.06.22-.18.07-.24Z"/><path class="cls-4" d="M73.43,145.91c-.48-.54-1-1.1-1.39-1.67a.13.13,0,0,0-.17-.05.13.13,0,0,0,0,.17c.45.6.93,1.17,1.42,1.72a.12.12,0,0,0,.18-.17Z"/><path class="cls-4" d="M72.36,146.8l-1.46-1.59c-.1-.12-.28.06-.17.18L72.18,147c.11.12.29-.06.18-.18Z"/><path class="cls-4" d="M61.75,121.13c1.41,1.41,2.79,2.86,4.14,4.33.11.12.29-.06.18-.18-1.35-1.47-2.73-2.92-4.14-4.33a.13.13,0,0,0-.18.18Z"/><path class="cls-4" d="M62.28,120.29c1.36,1.28,2.64,2.65,3.87,4,.11.12.29-.06.18-.18-1.23-1.4-2.51-2.76-3.87-4-.12-.11-.3.06-.18.17Z"/><path class="cls-4" d="M58.92,120.46a45.54,45.54,0,0,1,6.06,6.8c.09.13.27-.05.17-.17a44.59,44.59,0,0,0-6.06-6.81c-.12-.1-.3.07-.17.18Z"/><path class="cls-4" d="M57.41,120.39c3.21,1.2,5.07,4.35,6.82,7.1.08.13.3,0,.21-.13-1.78-2.81-3.68-6-7-7.21-.15-.06-.22.18-.07.24Z"/><path class="cls-4" d="M58.84,123.52A52.88,52.88,0,0,1,63,128.3c.1.12.28-.06.18-.18a54.39,54.39,0,0,0-4.2-4.78.12.12,0,0,0-.17.18Z"/><path class="cls-4" d="M58.33,126.19c1.12,1.26,2.22,2.54,3.32,3.82.1.13.28,0,.18-.17q-1.65-1.92-3.32-3.83c-.1-.12-.28.06-.18.18Z"/><path class="cls-4" d="M57.24,127.77c1.17,1.16,2.37,2.28,3.58,3.4.12.11.3-.07.18-.17-1.21-1.12-2.41-2.25-3.59-3.41a.12.12,0,0,0-.17.18Z"/><path class="cls-4" d="M55.6,128.68q1.68,1.95,3.47,3.79c.11.12.28-.06.17-.18-1.19-1.23-2.35-2.49-3.46-3.78-.11-.13-.28.05-.18.17Z"/><path class="cls-4" d="M54.77,129c1.26,1.38,2.45,2.8,3.59,4.27.1.13.27-.05.18-.17q-1.71-2.22-3.59-4.27a.12.12,0,0,0-.18.17Z"/><path class="cls-4" d="M53.83,128.88c1.07,1.54,2.11,3.11,3.15,4.68.08.13.3,0,.21-.13-1-1.57-2.07-3.13-3.14-4.68-.09-.13-.31,0-.22.13Z"/><path class="cls-4" d="M46.11,121.36l1.46,1.39c.12.12.3-.06.18-.17l-1.46-1.4c-.12-.11-.29.07-.18.18Z"/><path class="cls-4" d="M49.83,127.2A8.72,8.72,0,0,1,47,124.67a6.89,6.89,0,0,0-2.25-2.54c-.14-.08-.26.14-.12.21,1.11.59,1.63,1.75,2.34,2.72a9.18,9.18,0,0,0,2.75,2.36c.14.08.26-.14.12-.22Z"/><path class="cls-4" d="M55.32,133.49c-1.47-1.59-2-3.84-3.8-5.2-.13-.09-.3.08-.18.18,1.75,1.35,2.33,3.61,3.81,5.19.11.12.28-.06.17-.17Z"/><path class="cls-4" d="M43.07,122.75a73.63,73.63,0,0,1,10.21,10.82c.1.12.31,0,.22-.13a74.33,74.33,0,0,0-10.26-10.87c-.12-.1-.3.07-.17.18Z"/><path class="cls-4" d="M56,128.62c1.27,1,2.48,2,3.65,3.13.12.11.3-.07.18-.18-1.17-1.1-2.39-2.15-3.66-3.13-.12-.1-.3.08-.17.18Z"/><path class="cls-4" d="M50.87,133.05c-2.9-3.57-5.78-7.16-9-10.45-.11-.11-.29.06-.18.18,3.22,3.29,6.1,6.88,9,10.45.1.12.28-.06.18-.18Z"/><path class="cls-4" d="M47.6,132c-2-2.85-5-4.88-6.82-7.92-.08-.14-.3,0-.22.12,1.78,3,4.8,5.07,6.83,7.93.09.13.31,0,.21-.13Z"/><path class="cls-4" d="M38.84,124.88a80.07,80.07,0,0,1,6,6.18c.11.12.29-.06.18-.18a80.07,80.07,0,0,0-6-6.18c-.12-.11-.3.07-.18.18Z"/><path class="cls-4" d="M37.49,131.09c1.2,1.74,2.45,3.46,3.73,5.14.09.13.31,0,.21-.12q-1.92-2.54-3.73-5.15c-.09-.13-.31,0-.21.13Z"/><path class="cls-4" d="M63.31,127.19l-.92-1.73a5.55,5.55,0,0,0-.91-1.42c-.68-.64-1.69-.86-2.25-1.63-.1-.13-.31,0-.22.12.56.77,1.5,1,2.2,1.6a4.59,4.59,0,0,1,1,1.45l.93,1.74c.07.14.29,0,.21-.13Z"/><path class="cls-4" d="M62.46,128.78a17.09,17.09,0,0,1-3.08-4,.13.13,0,0,0-.22.12,17.37,17.37,0,0,0,3.12,4c.12.11.3-.06.18-.17Z"/><path class="cls-4" d="M38.43,134.43l-3-4.28c-.09-.13-.3,0-.21.13l3,4.28c.09.13.31,0,.22-.13Z"/><path class="cls-4" d="M49,132.44c.18-.81-.87-1.31-1.33-1.8a19.66,19.66,0,0,1-1.84-2.53,18.71,18.71,0,0,0-4.28-4.42c-.12-.1-.25.12-.12.21a18.45,18.45,0,0,1,4.1,4.22c.49.7.93,1.43,1.46,2.11a6.9,6.9,0,0,0,.9,1c.33.29,1,.65.87,1.17,0,.16.2.23.24.07Z"/><path class="cls-4" d="M52.21,133.26a41.65,41.65,0,0,0-2.56-3.38c-1-1.13-2.17-2-3.14-3.18-1.52-1.79-2.48-4.17-4.68-5.26-.14-.07-.27.15-.12.22,2.17,1.07,3.12,3.45,4.63,5.21.9,1.06,2,1.92,2.93,2.95A41.08,41.08,0,0,1,52,133.39c.09.13.3,0,.21-.13Z"/><text class="cls-6" transform="translate(80.94 125.08)">S</text><text class="cls-6" transform="translate(113.12 125.08)">K</text><text class="cls-6" transform="translate(100.01 123.56)">-</text><circle class="cls-7" cx="134.98" cy="103.71" r="4.14"/><ellipse class="cls-8" cx="133.33" cy="101.33" rx="1.32" ry="0.63" transform="translate(-27.12 149.3) rotate(-53.88)"/></g></g></svg>
